Coordinates
version=1
nRows=24
nColumns=22
inDegrees=yes

Units are S.I. units (second, meters, Newtons, ...)
If the header above contains a line with 'inDegrees', this indicates whether rotational values are in degrees (yes) or radians (no).

endheader
time	pelvis_tilt	pelvis_list	pelvis_rotation	pelvis_tx	pelvis_ty	pelvis_tz	hip_flexion_r	hip_adduction_r	hip_rotation_r	knee_angle_r	ankle_angle_r	subtalar_angle_r	hip_flexion_l	hip_adduction_l	hip_rotation_l	knee_angle_l	ankle_angle_l	subtalar_angle_l	lumbar_extension	lumbar_bending	lumbar_rotation
      1.81000000	      3.20230215	      2.04322446	    155.60648890	     -0.26989425	      0.93370873	      0.90504425	     23.25088963	      9.27053646	    -16.10139806	    -26.41342476	      7.67772874	     -9.94342526	      8.15069250	    -10.94199660	     -2.07483694	    -62.07671462	     -1.91653129	      9.37105909	     -8.69486273	      5.64618760	     -1.69010900
      1.82000000	      3.09498807	      1.94974940	    154.36875308	     -0.27597274	      0.93482724	      0.89732819	     22.34509104	      9.81890012	    -15.08340344	    -26.10734076	      7.99526015	     -9.88075267	      9.83157216	    -10.91165012	     -2.01659297	    -64.26071666	     -1.14085186	      8.62679878	     -8.78362985	      5.38995414	     -0.90046408
      1.83000000	      3.00478268	      1.84192575	    153.13230695	     -0.28190689	      0.93591667	      0.88963625	     21.42580866	     10.33325959	    -14.06593179	    -25.74763364	      8.29504524	     -9.84877919	     11.54088518	    -10.86798030	     -1.92165835	    -66.21469694	     -0.37783096	      7.90604811	     -8.82763572	      5.12022221	     -0.12544115
      1.84000000	      2.92104052	      1.73385684	    151.89516585	     -0.28768330	      0.93699374	      0.88197402	     20.47996788	     10.82662745	    -13.02062668	    -25.33728600	      8.54017716	     -9.84472957	     13.25343738	    -10.81448985	     -1.77942787	    -67.92730532	      0.35550983	      7.29376989	     -8.85311332	      4.85031174	      0.62697493
      1.85000000	      2.85176138	      1.61981150	    150.66849242	     -0.29333620	      0.93802814	      0.87437181	     19.51984479	     11.28638386	    -11.98059814	    -24.87919777	      8.76979934	     -9.86170841	     14.97154512	    -10.73894427	     -1.57553914	    -69.38770469	      1.04834752	      6.71402724	     -8.84622715	      4.58359733	      1.35617896
      1.86000000	      2.79236277	      1.50097549	    149.46018213	     -0.29887792	      0.93901494	      0.86684878	     18.54947147	     11.70961671	    -10.93920763	    -24.38870389	      8.98232196	     -9.89987339	     16.68582858	    -10.63338506	     -1.30162711	    -70.58972643	      1.69600772	      6.16296949	     -8.81874181	      4.32541485	      2.04531003
      1.87000000	      2.73841256	      1.38804303	    148.27686788	     -0.30434701	      0.93995328	      0.85941764	     17.56097297	     12.10093064	     -9.90109114	    -23.86755754	      9.18013940	     -9.95356951	     18.37432193	    -10.49904567	     -0.95244535	    -71.52452834	      2.31975763	      5.66753163	     -8.78121722	      4.08497769	      2.70072443
      1.88000000	      2.67882220	      1.30962768	    147.13529823	     -0.30978418	      0.94085513	      0.85208404	     16.53347166	     12.47334966	     -8.89100670	    -23.32615895	      9.40630946	     -9.99287227	     20.00558553	    -10.35150053	     -0.51325851	    -72.19178030	      2.96844170	      5.29167952	     -8.76413291	      3.88834297	      3.30643672
      1.89000000	      2.63192588	      1.21181106	    146.01373445	     -0.31516001	      0.94168218	      0.84483922	     15.51931944	     12.79822835	     -7.86569918	    -22.76962752	      9.58152054	    -10.05069898	     21.60809617	    -10.15695480	     -0.02902699	    -72.57243376	      3.55197980	      4.93042180	     -8.72455289	      3.68885605	      3.88598610
      1.90000000	      2.58811858	      1.10961851	    144.92242626	     -0.32054172	      0.94243964	      0.83765231	     14.49076364	     13.07976050	     -6.86230120	    -22.18435951	      9.74033003	    -10.14096348	     23.15051961	     -9.93435460	      0.48528583	    -72.66091650	      4.09789427	      4.59593635	     -8.67181355	      3.49602864	      4.43036912
      1.91000000	      2.53696340	      1.04167811	    143.87916289	     -0.32592058	      0.94312913	      0.83058154	     13.44070547	     13.34430575	     -5.86971812	    -21.60884086	      9.93156653	    -10.22761972	     24.60586493	     -9.69138621	      1.06847647	    -72.47466264	      4.64540878	      4.33924484	     -8.65370626	      3.34582515	      4.92770460
      1.92000000	      2.48333554	      0.97923627	    142.85571009	     -0.33130700	      0.94374598	      0.82354661	     12.37015855	     13.57638288	     -4.87966214	    -21.01347082	     10.11403336	    -10.32704768	     25.96687973	     -9.43531071	      1.65177309	    -71.99548897	      5.15732081	      4.13576656	     -8.64085701	      3.20382278	      5.40696472
      1.93000000	      2.42274144	      0.92647732	    141.84071406	     -0.33667696	      0.94428603	      0.81651759	     11.27314677	     13.78011128	     -3.88530545	    -20.40032731	     10.29546155	    -10.44720238	     27.21744123	     -9.18027605	      2.21131864	    -71.22549791	      5.63402051	      3.97983193	     -8.64197305	      3.06377349	      5.88447952
      1.94000000	      2.34710029	      0.88525045	    140.82733268	     -0.34203827	      0.94475818	      0.80952232	     10.15331828	     13.94947421	     -2.86684189	    -19.79086718	     10.47778430	    -10.59636249	     28.33582507	     -8.91722147	      2.74578532	    -70.16128870	      6.07205118	      3.87507199	     -8.66968467	      2.93146768	      6.35780561
      1.95000000	      2.25143977	      0.85721118	    139.81673208	     -0.34735547	      0.94515503	      0.80253843	      9.01431227	     14.08399835	     -1.82676339	    -19.19908136	     10.66352951	    -10.78032999	     29.31256737	     -8.64691982	      3.25790177	    -68.80688306	      6.47289336	      3.83467252	     -8.73119990	      2.79200587	      6.83241928
      1.96000000	      2.18378573	      0.83001817	    138.79889202	     -0.35262393	      0.94538530	      0.79557960	      7.91451642	     14.20427964	     -0.76899468	    -18.63767938	     10.88310717	    -10.92837641	     30.19863721	     -8.39872073	      3.74417955	    -67.18209833	      6.84670253	      3.85620214	     -8.77348846	      2.67701663	      7.31654628
      1.97000000	      2.16919678	      0.78823499	    137.76240824	     -0.35778898	      0.94539082	      0.78861507	      6.89859275	     14.32284214	      0.32348312	    -18.13228633	     11.13654103	    -11.00460811	     31.02264861	     -8.19335365	      4.20028840	    -65.29470465	      7.18190985	      3.91626183	     -8.76493628	      2.58494151	      7.82905831
      1.98000000	      2.08855653	      0.76314726	    136.73142674	     -0.36298473	      0.94542298	      0.78159974	      5.80498237	     14.36637343	      1.37069994	    -17.60958916	     11.36069960	    -11.13156753	     31.61935912	     -7.96646504	      4.61236745	    -63.09566633	      7.48883216	      4.15337509	     -8.81932936	      2.45554805	      8.31947939
      1.99000000	      2.05215222	      0.73991658	    135.70846527	     -0.36809817	      0.94525035	      0.77461215	      4.79411692	     14.41709530	      2.43838062	    -17.16705063	     11.62169771	    -11.23102519	     32.13205710	     -7.76489414	      5.05708877	    -60.65093419	      7.77191818	      4.49942551	     -8.84705893	      2.36087635	      8.80523901
      2.00000000	      2.04205469	      0.71371730	    134.71053066	     -0.37322117	      0.94491976	      0.76762646	      3.83315789	     14.45109302	      3.45649655	    -16.76594775	     11.89970361	    -11.29429326	     32.53763934	     -7.57713475	      5.52720172	    -57.95678460	      8.02689080	      4.95916309	     -8.84767596	      2.29090357	      9.26429509
      2.01000000	      2.08408736	      0.66466195	    133.72147414	     -0.37829452	      0.94435944	      0.76062621	      2.98001643	     14.48710079	      4.47422544	    -16.45337780	     12.23091972	    -11.31398441	     32.87650608	     -7.42195346	      6.02054974	    -55.03965677	      8.21223222	      5.40631460	     -8.78986120	      2.24450485	      9.72609382
      2.02000000	      2.09052275	      0.66791403	    132.82461623	     -0.38351005	      0.94379427	      0.75365579	      2.07345517	     14.49810063	      5.35278889	    -16.14586333	     12.52609321	    -11.31599648	     33.01206530	     -7.22744111	      6.64934176	    -51.89387597	      8.47595233	      6.16785207	     -8.79729522	      2.22674800	     10.06716719
      2.03000000	      2.15729722	      0.63503394	    131.95717670	     -0.38868792	      0.94296501	      0.74666507	      1.29299507	     14.51773907	      6.20576150	    -15.92684404	     12.89425059	    -11.27862326	     33.10688335	     -7.05613884	      7.35403120	    -48.57795527	      8.68725338	      6.90376249	     -8.72773397	      2.22785992	     10.39004377
      2.04000000	      2.23280237	      0.59708232	    131.12706254	     -0.39387796	      0.94198732	      0.73966689	      0.57589374	     14.52768496	      7.00819933	    -15.79579785	     13.27334774	    -11.21357402	     33.08549747	     -6.88509519	      8.16338581	    -45.10239454	      8.91253784	      7.64406854	     -8.64946490	      2.23763154	     10.68283721
